<?xml version="1.0" encoding="UTF-8"?>
<!-- Generated by Pixelmator Pro 3.6.4 -->
<svg width="195" height="183" viewBox="0 0 195 183" xmlns="http://www.w3.org/2000/svg">
    <g id="LIP6">
        <path id="Trac" fill="#26314f" stroke="none" d="M 0 47.388 L 40.756001 47.388 L 40.756001 148.138 L 94.005997 148.138 L 94.005997 183 L 0 183 Z"/>
        <path id="path1" fill="#26314f" stroke="#000000" d="M 52 48 L 94 48 L 94 137 L 52 137 Z"/>
        <path id="path2" fill="#26314f" stroke="none" d="M 144.505005 47.388 L 104.504997 47.388 L 104.504997 182.056 L 144.505005 182.056 L 144.505005 144.888 C 144.505005 144.888 195.005005 149.888 195.005005 98.888 C 195.005005 47.888 144.505005 47.388 144.505005 47.388 Z M 132.757996 83.041 C 132.938004 81.060997 133.018005 79.186996 134.322006 77.418999 C 135.626007 75.651001 137.408005 74.325996 139.664001 73.442001 C 141.921997 72.558998 144.524994 72.116997 147.477997 72.116997 C 151.115005 72.116997 154.097 72.676003 156.429001 73.792 C 158.761002 74.907997 160.429001 76.480003 161.434998 78.510002 C 162.440994 80.540001 162.945007 86.556 162.945007 89.639999 L 149.089996 89.639999 C 149.089996 87.330002 149.063004 84.113998 149.009995 83.510002 C 148.955002 82.906998 148.697998 82.402 148.231003 81.991997 C 147.766006 81.584 147.634995 81.378998 146.835999 81.378998 C 146.166 81.378998 146.031006 81.571999 145.600006 81.958 C 145.167999 82.345001 144.917999 82.843002 144.854004 83.452003 C 144.792007 84.060997 144.755997 85.288002 144.755997 87.137001 L 144.755997 96.015999 C 145.419006 94.704002 146.393997 93.720001 147.679001 93.063004 C 148.964005 92.406998 150.550003 92.079002 152.434998 92.079002 C 154.813995 92.079002 156.914001 92.689003 158.733994 93.908997 C 160.554001 95.128998 161.712997 96.593002 162.205002 98.300003 C 162.697006 100.008003 162.945007 102.316002 162.945007 105.222 L 162.945007 106.442001 C 162.945007 109.898003 162.804001 112.469002 162.526993 114.156998 C 162.25 115.845001 161.505997 117.404999 160.296997 118.837997 C 159.087997 120.272003 157.432007 121.384003 155.324005 122.177002 C 153.214996 122.970001 150.761993 123.365997 147.959 123.365997 C 144.473007 123.365997 141.617004 122.908997 139.393005 121.995003 C 137.169006 121.081001 135.451996 119.765999 134.242996 118.050003 C 133.033997 116.334 132.994995 114.529999 132.792007 112.641998"/>
        <path id="path3" fill="#26314f" stroke="none" d="M 144.755005 108.920998 C 144.755005 111.107002 144.953995 112.537003 145.354996 113.210999 C 145.755005 113.885002 145.960007 114.222 146.889999 114.222 C 147.451996 114.222 147.862 114.388 148.528 113.388 C 149.110992 112.805 149.028 110.550003 149.089005 109.305 L 149.089005 106.473 C 149.089005 104.717003 148.882004 103.512001 148.472 102.858002 C 148.061996 102.205002 147.850998 101.878998 146.923004 101.878998 C 146.014999 101.878998 145.807999 102.191002 145.388 102.814003 C 144.966003 103.436996 144.755005 104.657997 144.755005 106.474998 L 144.755005 108.920998 L 144.755005 108.920998 Z"/>
        <path id="path4" fill="#26314f" stroke="#000000" d="M 93 23 C 93 34.597977 83.597977 44 72 44 C 60.40202 44 51 34.597977 51 23 C 51 11.402023 60.40202 2 72 2 C 83.597977 2 93 11.402023 93 23 Z"/>
    </g>
</svg>
